<svg xmlns="http://www.w3.org/2000/svg" viewBox="131.56 134.56 704.76 704.1">

<path fill="#fb661b" stroke="#fb661b" d="M460.5 135.585c-2.2.218-8.95.863-15 1.433C291.68 151.509 157.488 280.331 135.617 434.5 117.971 558.888 166.822 681.929 265 760.372c118.798 94.919 281.84 103.783 407.484 22.155 101.437-65.902 160.112-169.491 163.185-288.102 1.343-51.796-6.203-93.942-25.261-141.109-44.436-109.97-149.197-193.658-266.908-213.219-22.613-3.758-66.55-6.146-83-4.512" fill-rule="evenodd"/>

<path fill="#1b1b1b" stroke="#1b1b1b" d="M451.5 246.945c-1.1.451-2.9 1.819-4 3.042-1.972 2.192-2.004 3.819-2.262 118.197-.145 63.786-.595 115.803-1 115.593-21.564-11.14-29.659-13.183-52.238-13.183-17.29 0-19.089.178-27.5 2.732-77.316 23.473-103.273 114.733-48.285 169.762 52.159 52.198 139.417 36.592 170.887-30.564 7.714-16.463 7.274-9.667 7.638-117.747l.326-96.723 5.682 2.513c14.32 6.333 34.503 22.881 43.827 35.933 13.605 19.047 19.724 38.354 19.807 62.5.107 31.059-7.806 50.388-29.883 73-13.609 13.938-14.699 16.56-10.619 25.541 6.332 13.941 20.134 15.447 35.251 3.846 42.122-32.324 58.165-105.627 34.695-158.524-17.409-39.237-55.585-72.225-93.788-81.044L495 360.657v-41.459l6.75 1.505c100.976 22.514 159.902 111.364 139.777 210.759-7.594 37.504-26.687 69.68-60.105 101.291-19.225 18.184-19.6 21.354-5.125 43.293 8.59 13.02 12.343 16.228 19.596 16.753 23.982 1.734 71.941-50.003 94.417-101.856 29.333-67.674 27.99-136.574-3.917-200.943-40.565-81.836-114.898-131.998-211.1-142.456-15.644-1.7-20.785-1.83-23.793-.599" fill-rule="evenodd"/>

</svg>